<?xml version="1.0" encoding="utf-8"?>
<svg xmlns="http://www.w3.org/2000/svg" xmlns:svg="http://www.w3.org/2000/svg" version="1.1" viewBox="0 0 1400 340">
	<title>The titlepage for the Standard Ebooks edition of While the Billy Boils, by Henry Lawson</title>
	<g aria-label="WHILE THE BILLY BOILS">
		<path d="m 152.46854,130 h 19.46199 l 21.9883,-77.192984 h -19.46199 l -13.19298,52.959064 h -0.46784 L 146.76094,52.807016 H 133.47439 L 119.4393,105.76608 h -0.46784 L 105.77848,52.807016 H 86.222924 L 108.21123,130 h 19.55555 l 12.35088,-43.321638 z"/>
		<path d="m 220.71985,99.029239 h 24.88889 V 130 h 17.59065 V 52.807016 H 245.60874 V 83.590642 H 220.71985 V 52.807016 H 203.12921 V 130 h 17.59064 z"/>
		<path d="M 297.01802,52.807016 H 279.42737 V 130 h 17.59065 z"/>
		<path d="M 330.8366,52.807016 H 313.24596 V 130 h 44.16374 v -15.4386 h -26.5731 z"/>
		<path d="M 415.27506,52.807016 H 371.11132 V 130 h 44.16374 v -15.4386 h -26.5731 V 99.029239 h 25.45029 V 83.590642 H 388.70196 V 68.245613 h 26.5731 z"/>
		<path d="M 456.05002,68.245613 H 474.3892 V 130 h 17.59064 V 68.245613 h 18.33919 V 52.807016 h -54.26901 z"/>
		<path d="m 539.27212,99.029239 h 24.88889 V 130 h 17.59064 V 52.807016 H 564.16101 V 83.590642 H 539.27212 V 52.807016 H 521.68148 V 130 h 17.59064 z"/>
		<path d="M 642.14338,52.807016 H 597.97963 V 130 h 44.16375 v -15.4386 h -26.5731 V 99.029239 h 25.45029 V 83.590642 H 615.57028 V 68.245613 h 26.5731 z"/>
		<path d="M 687.79241,52.807016 V 130 h 29.28655 c 16,0 25.26316,-8.79532 25.26316,-21.52047 0,-12.444443 -6.83041,-17.777776 -16.46784,-19.461987 6.54971,-3.368421 9.63743,-9.450292 9.63743,-16.561404 0,-14.690058 -10.47953,-19.649123 -23.76608,-19.649123 z m 17.59064,30.222223 V 66.374268 h 1.40351 c 7.67252,0 11.69591,2.339181 11.69591,7.859649 0,6.456141 -4.11696,8.795322 -11.69591,8.795322 z m 0,33.403511 V 98.187134 h 5.52047 c 8.32749,0 12.91228,2.526316 12.91228,9.637426 0,6.08187 -4.58479,8.60819 -12.91228,8.60819 z"/>
		<path d="M 772.69867,52.807016 H 755.10802 V 130 h 17.59065 z"/>
		<path d="M 806.51727,52.807016 H 788.92663 V 130 h 44.16374 v -15.4386 h -26.5731 z"/>
		<path d="M 864.38263,52.807016 H 846.79198 V 130 h 44.16375 v -15.4386 h -26.5731 z"/>
		<path d="m 896.22237,52.807016 28.44444,42.5731 V 130 h 17.59065 V 95.380116 l 28.44444,-42.5731 H 949.5557 L 933.46214,77.508771 917.36857,52.807016 Z"/>
		<path d="M 1009.0525,52.807016 V 130 h 29.2866 c 16,0 25.2631,-8.79532 25.2631,-21.52047 0,-12.444443 -6.8304,-17.777776 -16.4678,-19.461987 6.5497,-3.368421 9.6374,-9.450292 9.6374,-16.561404 0,-14.690058 -10.4795,-19.649123 -23.766,-19.649123 z m 17.5907,30.222223 V 66.374268 h 1.4035 c 7.6725,0 11.6959,2.339181 11.6959,7.859649 0,6.456141 -4.117,8.795322 -11.6959,8.795322 z m 0,33.403511 V 98.187134 h 5.5205 c 8.3274,0 12.9122,2.526316 12.9122,9.637426 0,6.08187 -4.5848,8.60819 -12.9122,8.60819 z"/>
		<path d="m 1072.9062,91.356724 c 0,22.549706 16.0935,40.046786 38.9239,40.046786 22.1755,0 38.8305,-17.49708 38.8305,-40.046786 0,-22.549708 -17.4036,-39.953217 -38.8305,-39.953217 -21.2397,0 -38.9239,17.403509 -38.9239,39.953217 z m 18.9941,0 c 0,-11.508772 6.3626,-23.017544 19.9298,-23.017544 13.6609,0 19.8363,11.508772 19.8363,23.017544 0,11.508776 -5.8012,23.017546 -19.8363,23.017546 -14.4093,0 -19.9298,-11.50877 -19.9298,-23.017546 z"/>
		<path d="m 1181.0171,52.807016 h -17.5906 V 130 h 17.5906 z"/>
		<path d="m 1214.8358,52.807016 h -17.5907 V 130 h 44.1638 v -15.4386 h -26.5731 z"/>
		<path d="m 1283.5549,51.403507 c -12.4444,0 -25.1696,9.169591 -25.1696,23.578948 0,8.046784 5.4269,15.251462 14.6901,19.836258 9.1696,4.584795 17.4035,7.111107 17.4035,12.725147 0,7.20468 -7.2983,7.57895 -11.1345,7.57895 -8.6082,0 -18.9006,-8.70176 -18.9006,-8.70176 l -8.7953,14.78363 c 0,0 10.9473,10.19883 29.0058,10.19883 15.0644,0 29.0994,-6.45614 29.0994,-24.88889 0,-10.105264 -9.4503,-17.40351 -18.0584,-21.052632 -8.7954,-3.742691 -16.0936,-6.83041 -16.0936,-11.134504 0,-4.210526 3.1813,-6.923976 9.1696,-6.923976 7.9532,0 15.6257,5.333333 15.6257,5.333333 l 7.1111,-14.035088 c 0,0 -9.9181,-7.298246 -23.9532,-7.298246 z"/>
	</g>
	<g aria-label="HENRY LAWSON">
		<path d="M 383.31823,266.77193 H 401.9849 V 290 h 13.19298 V 232.10526 H 401.9849 v 23.08772 H 383.31823 V 232.10526 H 370.12525 V 290 h 13.19298 z"/>
		<path d="M 461.72168,232.10526 H 428.59887 V 290 h 33.12281 v -11.57895 h -19.92983 v -11.64912 h 19.08772 v -11.57895 h -19.08772 v -11.50877 h 19.92983 z"/>
		<path d="m 487.4936,254.07018 h 0.14035 L 510.6515,290 h 13.19298 V 232.10526 H 510.6515 v 35.92983 h -0.14035 L 487.4936,232.10526 H 474.30062 V 290 h 13.19298 z"/>
		<path d="M 537.26542,232.10526 V 290 H 550.4584 V 267.12281 L 568.14261,290 h 16.77193 l -19.92982,-23.92982 c 7.08772,-2.24562 11.85964,-8.07018 11.85964,-16.77193 0,-11.36842 -8.14035,-17.19299 -18.87719,-17.19299 z m 13.19298,25.68421 v -15.15789 h 1.54386 c 4.98246,0 10.94737,0.35088 10.94737,7.57895 0,7.22807 -5.96491,7.57894 -10.94737,7.57894 z"/>
		<path d="m 586.18316,232.10526 21.33334,31.92983 V 290 h 13.19298 v -25.96491 l 21.33333,-31.92983 h -15.85965 l -12.07017,18.52632 -12.07018,-18.52632 z"/>
		<path d="M 686.49874,232.10526 H 673.30576 V 290 h 33.12281 v -11.57895 h -19.92983 z"/>
		<path d="M 747.3603,232.10526 H 735.14978 L 711.78136,290 h 14.17543 l 4.28071,-11.57895 h 22.03508 L 756.55328,290 h 14.17544 z m 0.42105,34.73685 H 734.72872 L 741.18486,250 h 0.14035 z"/>
		<path d="m 822.38392,290 h 14.59649 l 16.49123,-57.89474 h -14.59649 l -9.89474,39.7193 h -0.35088 l -10.52631,-39.7193 h -9.96491 l -10.52632,39.7193 h -0.35088 l -9.89473,-39.7193 H 772.69971 L 789.19094,290 h 14.66666 l 9.26316,-32.49123 z"/>
		<path d="m 882.96273,231.05263 c -9.33333,0 -18.87719,6.8772 -18.87719,17.68421 0,6.03509 4.07018,11.4386 11.01755,14.8772 6.87719,3.43859 13.05263,5.33333 13.05263,9.54385 0,5.40351 -5.47369,5.68422 -8.35088,5.68422 -6.45614,0 -14.17544,-6.52632 -14.17544,-6.52632 l -6.59649,11.08772 c 0,0 8.21053,7.64912 21.75439,7.64912 11.29824,0 21.82456,-4.8421 21.82456,-18.66666 0,-7.57895 -7.08772,-13.05264 -13.54386,-15.78948 -6.59649,-2.80702 -12.07018,-5.12281 -12.07018,-8.35088 0,-3.15789 2.38597,-5.19298 6.87719,-5.19298 5.96492,0 11.7193,4 11.7193,4 l 5.33334,-10.52631 c 0,0 -7.4386,-5.47369 -17.96492,-5.47369 z"/>
		<path d="m 911.19075,261.01754 c 0,16.91228 12.07017,30.03509 29.19298,30.03509 16.63158,0 29.12281,-13.12281 29.12281,-30.03509 0,-16.91228 -13.05264,-29.96491 -29.12281,-29.96491 -15.92983,0 -29.19298,13.05263 -29.19298,29.96491 z m 14.24561,0 c 0,-8.63157 4.77193,-17.26315 14.94737,-17.26315 10.24561,0 14.87719,8.63158 14.87719,17.26315 0,8.63158 -4.35088,17.26316 -14.87719,17.26316 -10.80702,0 -14.94737,-8.63158 -14.94737,-17.26316 z"/>
		<path d="m 993.52398,254.07018 h 0.14035 L 1016.6819,290 h 13.193 v -57.89474 h -13.193 v 35.92983 h -0.1404 L 993.52398,232.10526 H 980.331 V 290 h 13.19298 z"/>
	</g>
</svg>
